<svg height="24" viewBox="0 0 24 24" width="24" xmlns="http://www.w3.org/2000/svg"><g fill="#141414" fill-rule="nonzero"><path d="m9.5 0c.27614237 0 .5.22385763.5.5 0 .27614238-.22385763.5-.5.5-.55228475 0-1 .44771525-1 1 0 .27614237-.22385763.5-.5.5s-.5-.22385763-.5-.5c0-1.1045695.8954305-2 2-2z"/><path d="m16.5 2c0 .27614237-.2238576.5-.5.5s-.5-.22385763-.5-.5c0-.55228475-.4477153-1-1-1-.2761424 0-.5-.22385762-.5-.5 0-.27614237.2238576-.5.5-.5 1.1045695 0 2 .8954305 2 2z"/><path d="m4 20c0-.2761424.22385763-.5.5-.5s.5.2238576.5.5c0 .5522847.44771525 1 1 1 .27614237 0 .5.2238576.5.5s-.22385763.5-.5.5c-1.1045695 0-2-.8954305-2-2z"/><path d="m18 22c-.2761424 0-.5-.2238576-.5-.5s.2238576-.5.5-.5c.5522847 0 1-.4477153 1-1 0-.2761424.2238576-.5.5-.5s.5.2238576.5.5c0 1.1045695-.8954305 2-2 2z"/><path d="m2.5 5c-.27614237 0-.5-.22385763-.5-.5s.22385763-.5.5-.5h19.0217289c.2761423 0 .5.22385763.5.5s-.2238577.5-.5.5z"/><path d="m9.5 1c-.27614237 0-.5-.22385762-.5-.5 0-.27614237.22385763-.5.5-.5h5c.2761424 0 .5.22385763.5.5 0 .27614238-.2238576.5-.5.5z"/><path d="m6 22c-.27614237 0-.5-.2238576-.5-.5s.22385763-.5.5-.5h12c.2761424 0 .5.2238576.5.5s-.2238576.5-.5.5z"/><path d="m7.5 2c0-.27614237.22385763-.5.5-.5s.5.22385763.5.5v2.5c0 .27614237-.22385763.5-.5.5s-.5-.22385763-.5-.5z"/><path d="m4 5c0-.27614237.22385763-.5.5-.5s.5.22385763.5.5v15c0 .2761424-.22385763.5-.5.5s-.5-.2238576-.5-.5z"/><path d="m7.5 8c0-.27614237.22385763-.5.5-.5s.5.22385763.5.5v10c0 .2761424-.22385763.5-.5.5s-.5-.2238576-.5-.5z"/><path d="m11.5 8c0-.27614237.2238576-.5.5-.5s.5.22385763.5.5v10c0 .2761424-.2238576.5-.5.5s-.5-.2238576-.5-.5z"/><path d="m15.5 8c0-.27614237.2238576-.5.5-.5s.5.22385763.5.5v10c0 .2761424-.2238576.5-.5.5s-.5-.2238576-.5-.5z"/><path d="m19 5c0-.27614237.2238576-.5.5-.5s.5.22385763.5.5v15c0 .2761424-.2238576.5-.5.5s-.5-.2238576-.5-.5z"/><path d="m15.5 2c0-.27614237.2238576-.5.5-.5s.5.22385763.5.5v2.5c0 .27614237-.2238576.5-.5.5s-.5-.22385763-.5-.5z"/></g></svg>