<?xml version="1.0" encoding="iso-8859-1"?>
<!-- Uploaded to: SVG Repo, www.svgrepo.com, Generator: SVG Repo Mixer Tools -->
<svg fill="#000000" height="800px" width="800px" version="1.1" id="Capa_1" xmlns="http://www.w3.org/2000/svg" xmlns:xlink="http://www.w3.org/1999/xlink" 
	 viewBox="0 0 492.878 492.878" xml:space="preserve">
<g>
	<g>
		<path d="M488.891,175.542l-0.4-1l-0.8-2l-1.6-4l-12.5-32.3l-0.4-1l-0.7-1.6l-0.5-1.1l-1.2-2.2c-1.5-2.6-3.1-4.6-5.1-6.5
			c-3.9-3.8-8.7-6.6-14-8.1c-2.6-0.7-5.3-1.1-8.1-1.1c-1.4,0-2.7,0.1-4.1,0.2c-1.2,0.2-3,0.5-3.4,0.6l-8.5,1.7l-24.2,4.9
			c-7.2-9.1-15.1-17.6-23.8-25.4l8.8-34.8l0.3-1.4c0.2-1.1,0.3-2.3,0.4-3.5c0.1-2,0.1-3.8-0.1-5.6c-0.4-3.7-1.4-7.4-2.9-10.8
			c-3.1-6.8-8.6-12.6-15.4-15.9l-21.4-9.5l-21.3-9.3l-1.5-0.6c-1.1-0.4-2.3-0.7-3.5-1c-1.9-0.4-3.8-0.7-5.7-0.8
			c-3.8-0.2-7.7,0.2-11.4,1.3c-7.4,2.1-14,6.7-18.5,12.9l-18.1,28.9c-10.6-1.1-21.4-1.4-32.2-0.8l-17.8-29.5l-0.8-1.2
			c-0.7-1-1.5-2-2.4-3c-1.4-1.5-2.8-2.9-4.3-4.1c-3.1-2.5-6.6-4.4-10.3-5.8c-7.4-2.7-15.7-2.9-23.4-0.3c-2.3,0.8-2.7,1-3.7,1.4
			l-2.6,1l-5.2,2.1l-10.5,4.2l-21.7,8.7l-1.3,0.6c-1,0.5-2.2,1.1-3.2,1.7c-1.8,1.1-3.4,2.3-4.9,3.6c-3,2.6-5.6,5.8-7.6,9.3
			c-4,6.9-5.5,15.3-4.3,23.1l0.5,2.6l0.3,1.4l0.6,2.8l1.2,5.5l2.4,11l2.3,10.3c-8.6,7-16.5,14.8-23.7,23.2l-11.4-2.7l-11.5-2.7
			l-5.8-1.3l-2.9-0.7l-1.6-0.3l-0.7-0.1l-1.5-0.2l-1.9-0.2c-8.5-0.6-16.7,1.8-23.3,6.7c-3.3,2.4-6.2,5.5-8.5,8.9
			c-1.1,1.7-2.1,3.5-2.9,5.4l-1.2,2.8l-9,21.8l-4.3,9.7l-2.2,4.9l-0.8,2l-0.5,1.2c-0.3,0.8-0.7,2.2-1,3.2c-0.3,1.1-0.4,1.9-0.6,2.9
			c-1.2,7.3,0,15,3.3,21.6c1.7,3.3,3.9,6.3,6.5,8.9c2.4,2.6,6.4,5.1,7.2,5.6l25.4,16.8c-1.1,10.5-1.3,21.1-0.7,31.6l-29.2,17.5
			c-6.5,4.3-11.8,11.2-14.3,18.6c-2.6,7.4-2.8,15.8-0.2,23.5l8.7,22.1l8.6,21.7c3.2,7.3,9.2,13.8,16.4,17.5
			c7.2,3.9,15.9,5.1,23.8,3.6l32.2-6.9c6.5,7.8,13.7,15.1,21.3,21.9l-7.7,32.4l-0.1,0.7l-0.2,1.4c-0.2,1.2-0.3,2.7-0.3,3.7
			c-0.1,2,0,4.1,0.3,6.1c0.5,4.1,1.7,8,3.6,11.7c3.6,7.3,9.9,13.5,17.4,16.9l21.3,9l21.5,9c7.5,2.9,16.3,3.1,23.9,0.6
			c7.7-2.4,14.6-7.6,19-14.3l18-28.5c10.7,0.8,21.4,0.8,32-0.1l15.7,24.8l1.4,2.2l1.2,1.8l1.1,1.5c0.7,0.9,1.4,1.8,2.1,2.5l1.9,1.9
			c1.3,1.2,2.7,2.3,4.1,3.3c5.8,3.9,12.7,6,19.6,5.9c3.5,0,7-0.6,10.3-1.7l2.4-0.9l1.2-0.5l2.4-1l9.5-4c6.4-2.8,12.6-5.5,18.6-8.1
			c3.2-1.5,6.4-2.9,9.5-4.3l1.1-0.5c0.4-0.2,1.5-0.8,2.3-1.3c1.7-1,2.6-1.8,3.9-2.8c2.3-1.9,4.3-4.2,5.9-6.5
			c3.3-4.8,5.1-10.3,5.4-15.7c0.2-2.7,0-5.3-0.5-7.8l-0.4-1.9c-0.2-0.7-0.2-0.8-0.3-1.2l-0.6-1.9c-1.6-5.1-3.2-9.9-4.8-14.1
			c-6.2-17-11.8-26.6-15.8-23.6c-3.6,2.7-4.8,14-3.7,31.7c0.3,4.3,0.8,9.4,1.2,14.2c-0.1,2.2-1.3,4.1-2.9,5.1c-0.3,0.2-1,0.6-1,0.5
			c0.4-0.2-0.7,0.3-1.4,0.5c0.2-0.1-0.5,0.2,0.5-0.2l0,0h-0.1h-0.1l-0.3,0.1l-1,0.3l-1.1,0.4c-2.9,1-6,2.1-9.1,3.1
			c-6.2,2.2-12.6,4.5-19.3,7.1l-9.3,3.5c-2.1,0.8-1.7,0.6-2.2,0.7c-0.3,0.1-0.7,0-1-0.1c-0.7-0.1-1.3-0.5-1.8-0.9
			c-0.1-0.1-0.1-0.1-0.2-0.2c-0.1-0.2-0.3-0.5-0.5-0.7l-2.2-3.7c-6.7-11.4-13.4-22.9-20.2-34.4c-2.7-4.7-8-7.5-13.8-6.9l-0.5,0.1
			c-15.6,1.7-31.5,1.4-47-1.3c-5.7-1-11.6,1.4-15,6.5l-0.2,0.4c-8.2,12.3-16.3,24.6-24.5,37c-0.3,0.3-0.4,0.3-0.6,0.3
			c-0.1,0-0.1,0-0.1,0l-19.3-8.4l-20.3-8.9l-0.6-0.3c-0.1-0.1,0,0-0.1-0.1l0,0l0,0v-0.1c3.3-13.8,6.6-27.6,9.9-41.3l0.5-2.1v-0.1
			c1.5-6.2-0.7-12.9-6.1-17c-12.4-9.4-23.3-20.6-32.7-33.2l-0.1-0.1c-3.7-5-10.2-7.6-16.6-6.2l-43.3,9.7c-0.4,0.1-0.6,0.2-0.9-0.4
			l-8.2-20.1l-8.1-19.8c-0.3-0.5-0.1-1.7,0.6-2.1l37.7-23.4l0.2-0.1c4.9-3,7.8-8.7,6.9-14.8c-2.2-15.6-2.2-31.5,0.1-47v-0.3
			c0.8-5.5-1.6-11.3-6.6-14.4l-37.6-23.8c-1-0.6-1.5-1.8-1.1-3.1l8.4-20.1l8.5-20.3c0.5-1.2,1.7-2.2,3.7-1.8l43.1,10l0.2,0.1
			c4.9,1.1,10.2-0.6,13.3-4.9c5.8-7.8,12.3-15,19.4-21.6c5-4.2,10.2-8,15.7-11.6c4.2-2.8,6.6-7.9,5.6-13.1l-0.2-0.9
			c-2.6-14.4-5.2-28.9-7.9-43.4c0-0.5,0.2-0.8,0.5-1c0.1-0.1,0.2-0.2,0.4-0.2l0.2-0.1c-0.1,0.1-0.3,0.2-0.4,0.3l1.1-0.5l20.5-7.6
			l10.6-3.9l5.3-2l2.6-1l1.3-0.5c0.2-0.2,0.6,0,0.5-0.5c0,0,0,0.6,0,0.5c0,0,0.1-0.2,0.2-0.3l0,0l0.2,0.3l0.2,0.3
			c-1.7-0.8-0.5-0.2-0.8-0.3l0,0v0.1l0.1,0.2l0.4,0.6l0.7,1.2l1.4,2.4l2.9,4.9l5.7,9.7l11.5,19.5c3.4,5.8,10.1,9.4,17.2,8.6l0.6-0.1
			c15.1-1.7,30.6-1,46,1.5c7.1,1.2,14.5-1.9,18.6-8.3l0.2-0.4l12.1-18.8l6.1-9.4l3-4.7l1.3-2l0.3,0.1l2.6,1.1l5.1,2.2l10.3,4.5
			l10.3,4.5l5.2,2.2l2,0.9v0.1l-0.7,2.7l-1.3,5.5l-2.7,10.9l-5.3,21.8c-1.8,7.3,0.7,15.4,7,20.4l0,0c12,9.4,22.7,20.4,31.5,32.7
			c4.5,6.2,12.4,9.6,20.4,7.9l22-4.8l11-2.4l5.5-1.2l2-0.4v0.1l1.1,2.6l2.1,5.2l4.2,10.4l4.2,10.4l2.1,5.2l0.9,2.2l-0.1,0.1
			l-2.4,1.5l-4.8,2.9l-9.6,5.9l-19.2,11.8h-0.1c-6.4,3.9-10.2,11.3-9.2,19.2c1.9,15,1.6,30.4-0.7,45.7c-1.1,7.4,2.1,15.1,8.8,19.5
			l18.9,12.1l9.5,6.1l4.7,3l1.9,1.2l-0.1,0.2l-1.1,2.6l-2.2,5.2l-4.4,10.3l-4.4,10.3l-2.2,5.1l-0.8,1.8l-0.2-0.1l-2.7-0.7l-5.4-1.4
			l-10.9-2.7l-21.7-5.4c-7.2-1.8-15.2,0.6-20.2,6.7l-0.4,0.5l-2.6,3.2c-3.8,4.6-8.3,10.8-12.6,16.4c-4.2,5.6-8.2,10.7-9.8,13.5
			c-3.5,5.7-1.5,7,4.3,5.2c5.6-1.7,14.8-6.9,24.5-15c4-3.3,7.8-6.9,11.9-11.1l0.1-0.1c0.1-0.1,0.2-0.1,0.3-0.1
			c12.8,4.7,26,9.3,39.7,13.9c1.7,0.5,3.3,1.2,5.7,1.6c2.4,0.4,4.6,0.3,6.9-0.1c4.6-0.8,9.1-3.1,12.4-6.8c0.8-0.9,1.6-1.9,2.3-2.9
			c0.7-1,1.3-2.3,1.7-3l2.6-5c1.7-3.3,3.4-6.7,5.1-10c3.4-6.7,6.8-13.5,10.3-20.4l1.3-2.6l0.7-1.7c0.2-0.3,0.5-1.4,0.8-2.2
			c0.9-3.1,1.2-5.9,1-9c-0.4-6-2.9-11.9-7.2-16.4c-1.1-1.1-2.2-2.2-3.5-3.1l-2.7-1.9l-4.8-3.4c-3.2-2.3-6.5-4.5-9.7-6.8
			c-4.4-3-8.8-6.1-13.2-9.2c1.9-12.5,2.6-25.5,1.8-38.6c9.6-5.7,19.2-11.3,28.9-17.1l1.9-1.1l0.9-0.6l1.4-0.9l0.5-0.4l1-0.7
			c0.6-0.5,1.3-1.1,1.8-1.5c1-0.9,1.9-1.8,2.8-2.8c3.4-4,5.8-8.9,6.8-14c1.1-5.1,0.8-10.6-0.9-15.7L488.891,175.542z
			 M182.591,457.242h0.1C182.691,457.342,182.691,457.342,182.591,457.242L182.591,457.242
			C182.591,457.242,182.491,457.242,182.591,457.242z M142.391,439.442C142.291,439.442,142.391,439.242,142.391,439.442
			C142.291,439.442,142.291,439.442,142.391,439.442L142.391,439.442z M316.491,38.142c-0.2-0.1-0.3-0.1-0.2-0.1h-0.1
			c-0.2-0.2-0.2-0.2-0.2-0.2v-0.1l0.3,0.1l0.3,0.2C317.191,37.242,316.991,37.542,316.491,38.142z M439.791,353.842L439.791,353.842
			C439.691,354.042,439.691,354.042,439.791,353.842z M457.491,314.342L457.491,314.342L457.491,314.342l0.1-0.1
			c0.2-0.2,0.2-0.2,0.2-0.2h0.1l-0.2,0.5v0.1l0,0c0.1,0.1,0,0-0.1-0.1C457.491,314.542,457.491,314.442,457.491,314.342z
			 M459.691,187.442l-0.2,0.1l0,0c0-0.1,0-0.1,0-0.1c0.2-0.1,0.4-0.2,0.6-0.3l0,0l0,0L459.691,187.442z"/>
		<path d="M310.491,267.942l-1.4,3.9c-0.8,2.7-2.3,5-3.3,7.6c-2.7,4.8-5.6,9.6-9.4,13.8c-7.2,8.6-16.7,15.4-27.3,20
			c-3,1.5-6,2.4-8.7,3.9c-2.8,1-5.3,2.5-7.4,3.9c-4.3,2.6-7.3,6.1-6.8,10.6c0.5,4.1,3.7,7.6,9.5,10.1c2.9,0.9,6.5,1.7,10.5,1.8
			c4-0.2,8.5-0.3,13.1-1.9c8.5-2.2,16.4-6,24.1-10.4c7.5-4.6,14.6-10.2,20.7-16.7c6-6.6,11.5-13.8,15.5-21.9
			c2.2-3.9,3.7-8.2,5.4-12.4c0.8-2.1,1.3-4.3,1.9-6.5s1.2-4.3,1.6-6.8l0.9-5.8l0.4-2.9l0.1-2.3l0.2-4.6l0.1-1.1v-0.6v-0.3v-0.9v-0.1
			v-0.2l-0.1-2.7c-0.2-7.2-1.1-14.4-2.9-21.4c-3.5-14-10-27.2-18.9-38.4c-17.7-22.6-44.9-36.5-73.2-37.9c-11.9-2.4-25.4-2.4-38,0.6
			c-12.8,2.9-25.1,8.6-35.8,16.5c-10.7,8-19.9,18.2-26.8,29.9l-4.7,9c-1.3,3.1-2.5,6.3-3.8,9.5c-1,3.2-1.9,6.5-2.8,9.8
			c-0.8,3.5-1.3,7.3-1.9,10.9l-0.2,1.4l0.1,1.2l-0.1,2.1l-0.3,4.1l-0.1,1v0.5v1.1v0.2v0.3l0.1,2.5l0.2,5.1
			c0.4,6.8,1.5,13.5,3.3,20.1c3.5,13.2,9.5,25.6,17.6,36.5s18.2,20.2,29.7,27.3c2.8,1.9,5.8,3.5,8.9,5c3,1.6,6.1,2.9,9.3,4.1
			c3.1,1.3,6.4,2.4,9.6,3.3l4.9,1.4l5.5,1c6,1.2,11.7-2.2,13.9-4.4c4.1-4.6-0.5-9-7.8-12.8c-12.1-6.8-22.7-14.8-32-24
			c-9.1-9.4-16.7-20.1-21.8-31.8c-3.2-7-4.9-14.6-5.6-22.1c-0.1-1.9-0.5-3.8-0.3-5.7l0.1-2.8v-1.4v-0.7v-0.2c0.5-4.4,0.9-9.4,1.8-12
			l0.5-2.4c0.2-0.8,0.6-1.7,0.8-2.6c0.6-1.7,1-3.6,1.8-5.2l2.2-5.1l2.7-4.8c3.8-6.3,8.5-11.9,13.9-16.8c5.4-4.8,11.6-8.7,18.1-11.7
			c3.2-1.6,6.7-2.6,10.1-3.8c3.5-0.8,6.9-1.7,10.5-2l2.7-0.4l2.7-0.1l2.7-0.1l1.3-0.1h0.1h0.7l6.9,0.4l4.7,0.7
			c6.6,1.1,13.9,3.4,20.4,6.5c6.1,3.9,11.5,8.8,16.1,14.2c14.9,17.1,20.2,41.2,14.5,62.7L310.491,267.942z"/>
	</g>
</g>
</svg>